<svg aria-hidden="true" style="position:absolute;width:0;height:0;overflow:hidden" xmlns="http://www.w3.org/2000/svg">
  <defs>
    <symbol id="icon-back" viewBox="0 0 22 32">
      <path fill="none" stroke="#fff" style="stroke:var(--color1, #fff)" stroke-linecap="round" stroke-width="5" d="M18 3 5 16l13 13"/>
    </symbol>
    <symbol id="icon-checked" viewBox="0 0 43 32">
      <path fill="#fff" style="fill:var(--color1, #fff)" d="M39.054 1.012C37.708-.335 35.355-.34 34.005 1.01L12.984 22.035l-6.896-6.894c-1.346-1.344-3.692-1.351-5.048 0a3.577 3.577 0 0 0 .003 5.046l9.426 9.428a3.576 3.576 0 0 0 2.514 1.034c.954 0 1.85-.371 2.517-1.042l23.55-23.55a3.547 3.547 0 0 0 1.046-2.522c0-.954-.373-1.849-1.042-2.522z"/>
    </symbol>
  </defs>
</svg>
